<svg xmlns="http://www.w3.org/2000/svg" xmlns:xlink="http://www.w3.org/1999/xlink" width="215.95" height="61.07" viewBox="0 0 215.95 61.07">
    <defs>
        <clipPath id="clip-path">
            <rect id="Rechteck_1" data-name="Rechteck 1" width="215.95" height="61.07" transform="translate(-2.83 -1.79)" fill="none"/>
        </clipPath>
    </defs>
    <g id="kanton-zuerich" transform="translate(2.83 1.79)">
        <g id="Gruppe_1" data-name="Gruppe 1" clip-path="url(#clip-path)">
            <path id="Pfad_1" data-name="Pfad 1" d="M18.3,100.33a1,1,0,0,1,.53.34A2.16,2.16,0,0,0,19.28,99c-.48,0-.93.75-1,1.35m1.24-2a2.84,2.84,0,0,1,.23,1.37.84.84,0,0,1,.23.07,2.52,2.52,0,0,0,0-1.87.59.59,0,0,0-.42.43m1.18.45a2,2,0,0,0-.06-1.55c-.06-.07-.35.1-.41.31a2.62,2.62,0,0,1,.31,1.21.45.45,0,0,1,.16,0m13.74-.8a2.24,2.24,0,0,1,.67.25,2.45,2.45,0,0,0,.27-1.59c-.55,0-.95,1-.94,1.34M35.71,96A2.83,2.83,0,0,1,36,97a1.809,1.809,0,0,1,.23,0,2.1,2.1,0,0,0-.07-1.58c-.12,0-.32.28-.41.53m1.11-.43a1.93,1.93,0,0,0-.18-1.18c-.12-.08-.27.16-.33.44a2.26,2.26,0,0,1,.35.74.43.43,0,0,1,.16,0M24.2,78.35a4.34,4.34,0,0,0-1.75,1.12A11.879,11.879,0,0,0,22.36,81c.5-.29.64-.8,1.2-1.25,1-.8,1.51-.91,1.45-1a1.784,1.784,0,0,0-.81-.32m11,15c-1.53-.15-3,1.22-4,.61a7.411,7.411,0,0,1-2.46-3.54c0-.19.33-.33.86-.67a26,26,0,0,0,2.55-1.81c.94-.76,2.39-1.91,2.41-3.41a5.12,5.12,0,0,0-1.2-2.83,14.18,14.18,0,0,0-4.07-3.23,27.369,27.369,0,0,0-2.71-1.35c-.77.43-1.15.55-1.81.9.48.19.88.5.8.77s-.17.2-.74.58a7.809,7.809,0,0,0-.94.72,13,13,0,0,0-1,1.24,3,3,0,0,1-.57.52c0,.22,0,.41,0,.69,2.49.07,4.75.79,5.84,2.19a3.6,3.6,0,0,1,.5.8,2.43,2.43,0,0,1-1,2.83c-.7.46-2.28.73-2.72,1.16s-.38.9-.79,1.41a2,2,0,0,1-.65.51,1.22,1.22,0,0,0,1.05.46A2.64,2.64,0,0,0,25,91.5a1.33,1.33,0,0,0,.21-.77c0-.08.11-.16.16.1.25,1.29-1.26,1.44-1,2.89a1.54,1.54,0,0,1,1.19-.28,4.839,4.839,0,0,1,.43-.62,1.17,1.17,0,0,0,.17-.7c0-.1.12-.14.17.19.15.94-.84,1.17-.43,2.65a1.56,1.56,0,0,1,1-.32,1.32,1.32,0,0,0,.28-.89c0-.1.1-.21.18.14.16.69-.42,1-.12,1.87,1-.43,1.31.33,1.77.92a7.31,7.31,0,0,0,.88,1.09c.7.54,2.66.07,4.14.23a1.92,1.92,0,0,1,1.26-1.68,1.39,1.39,0,0,0-2.27-.57c-.1.1,0-.16.15-.33a1.69,1.69,0,0,1,2.3.36c.11-.27.32-.51.49-.52a1.75,1.75,0,0,0-2.58-.61c-.06,0-.08-.08.13-.26a2,2,0,0,1,2.54.3c.05-.28.2-.49.35-.49a1.91,1.91,0,0,0-1.25-.79M43.42,72c-.42.29-.42,1-.42,1.51a1.41,1.41,0,0,1,.68,0A2,2,0,0,0,43.42,72m.89.35a2.51,2.51,0,0,0-.64-1.65c-.16,0-.19.41-.17.66a2.32,2.32,0,0,1,.63,1h.18m-.5-2.07a2.82,2.82,0,0,1,.57.89h.14A2.07,2.07,0,0,0,44,69.71c-.15,0-.2.36-.16.54M41.92,56.84a1.59,1.59,0,0,0-1.33-.66c-.12.49.51,1,.93,1.21a1.18,1.18,0,0,1,.4-.55m-.84-1.26a1.92,1.92,0,0,0-1.64-.47,1.02,1.02,0,0,0,.5.67A1.87,1.87,0,0,1,41,55.72l.07-.14M38,57.1a1.77,1.77,0,0,1,0-1.48,2.06,2.06,0,0,1,.54-.65.52.52,0,0,1-.45-.36c-1.64.88-.78,2.57-.95,4.08-.11.94-1.3,1.27-2.08,1.76a10.18,10.18,0,0,0-1.8,1.35c.84,2,.26,2.44,1.21,3.4a1,1,0,0,1-.69.33,8.7,8.7,0,0,1-.3,2.37c.69-.28,1.2.18,1.77-.38A1.44,1.44,0,0,1,34.87,66c.08-.24.18-.21.18-.14a.93.93,0,0,0,0,.31A1.91,1.91,0,0,0,36.48,66c-.74-1.25.67-2.36,1.73-3.05a9,9,0,0,0,2.33-1.73c.71-1,.36-2,.82-3.42-.54-.27-1.25-.8-1.17-1.56-.56.07-1.22.77-.86,2,.06.2-.06.14-.18,0A1.68,1.68,0,0,1,39.62,56c-.29-.19-.54-.55-.51-.75-.85.31-1.12,1-.94,2,0,.14-.09.15-.19-.14m1.78-2.67a1.52,1.52,0,0,0-1.27,0c-.13.11,0,.27.4.34a2.37,2.37,0,0,1,.85-.2.89.89,0,0,1,0-.15M29.2,53s-.05.06-.1.13a2.26,2.26,0,0,1-.35.42,3.13,3.13,0,0,1,.61,0A1,1,0,0,0,29.2,53m-3.2.53c.19.66,1.36,0,2.27,0a2.73,2.73,0,0,0,.63-.68,2.85,2.85,0,0,0-2.9.71m3.45-2.1a2.32,2.32,0,0,1,.16.52c0,.09,0,.17.06.15a1.22,1.22,0,0,0,.47-.69,4.059,4.059,0,0,1-.69,0m-3.66,1.48a4.13,4.13,0,0,1,3.49-.59,1.92,1.92,0,0,0-.3-.88c-1.62-.27-3.16-.29-3.19,1.47M21,45.46a35.239,35.239,0,0,0-4.78.38,1.73,1.73,0,0,1-.6-.13,1.22,1.22,0,0,0,0,.78c-.83.49-.92,1.46-2,1.28a.94.94,0,0,0,.33.85c.11,0,.33-.12.3,0a9.16,9.16,0,0,0-.46,2.4c-.07.37-.6.72-1.08.81a.84.84,0,0,0,.63.91c.28-.56.69-.65.62-.48a3.86,3.86,0,0,0-.23,1.16,8.59,8.59,0,0,0,.68,3.38c.76,1.77,1.7,3.18.39,4a1.41,1.41,0,0,0,1.65.45,2.21,2.21,0,0,0,.06-1.37c0-.05,0-.07.11,0A1.66,1.66,0,0,1,17,61.32c-.19,1.33-1.33,3-.54,4.53a2,2,0,0,1,.92-.46,2.18,2.18,0,0,1,.78-1.72c.28-.2.32-.08.25,0-.58.7-.54,2-.39,3.22.2,1.49-.27,2.36-.72,2.6a2.18,2.18,0,0,0,1.93-.11,2.89,2.89,0,0,0,1.09-1,3.13,3.13,0,0,1-.43-2.26c.11-.45.36-.6.31-.39-.33,1.88,1.46,2.74,1.42,4.57a2.3,2.3,0,0,0,1.25-2.47c0-.14.13-.07.18.07.53,1.5-.43,3.58-2.2,3.4a3.72,3.72,0,0,0-.29-2.42,2.71,2.71,0,0,1-1.07,1.08,11.47,11.47,0,0,1-.24,1.22A5.8,5.8,0,0,1,17.65,74c-1.67,1.71-2.28,1.85-3.37,3.43a5.63,5.63,0,0,1-1.38.8c-3.3,1.3-6.06-.47-5.84-4a15.69,15.69,0,0,1,1.42-4.65c1.73-4,3.36-7.26,3.56-10.28.17-2.48-.89-5-3.47-5-1.76,0-3.44,1.42-3.48,4.3,0,1.7,0,3-.71,4.15a6.72,6.72,0,0,1-.44.64,3.19,3.19,0,0,0,2.77-1.21,2.24,2.24,0,0,1,.22.49,3.27,3.27,0,0,0,.59-3.06.92.92,0,0,0,1.09-.57,2,2,0,0,1-1.69-2.38,1.86,1.86,0,0,1,1.54-1.53c2.15-.26,2.78,1.92,2.75,4,0,2.63-1.62,5.53-3,8.47-1.13,2.36-2.42,4.77-2.55,7-.14,2.5,1,7,7.21,6,.25-.72.55-1,.74-.92s0,.14,0,.38a9.3,9.3,0,0,0-.11,2.06c.07,1.62.77,3.23.86,4.4.13,1.85-.83,2.06-2.34,2.23a7.32,7.32,0,0,0-2.15.33c-.34.16-.56,1-.89,1.41a2,2,0,0,1-1.3.72A1.43,1.43,0,0,0,9,92a1.85,1.85,0,0,0,.57-1c0-.1.14-.17.12.19a2.46,2.46,0,0,1-1.93,2.19,1.51,1.51,0,0,0,1.45.75,2,2,0,0,0,.93-1.24c0-.16.15-.09.14.13a2,2,0,0,1-.7,1.42A1.45,1.45,0,0,0,9,95.79a2,2,0,0,1,1.14-.08,1.63,1.63,0,0,0,.53-.91c0-.14.18-.11.15.23-.06.8-.72,1.17-.55,1.93,1.57-.75,1.75,2.05,3,2.9,1,.7,2.9.28,4.62.4a2,2,0,0,1,1.28-1.67,1.39,1.39,0,0,0-2.12-.66c-.12.08-.08-.09.06-.2A1.63,1.63,0,0,1,19.3,98a.93.93,0,0,1,.54-.43,1.74,1.74,0,0,0-2.53-.7c-.15.1-.11-.12.16-.28a1.91,1.91,0,0,1,2.59.63c.1-.16.31-.36.47-.35A2,2,0,0,0,18.6,95.7c-1.61,0-3,1.1-3.56.28a8.87,8.87,0,0,1-1.55-4.67c0-.17,0-.33.16-.39,1.24-.28,2.42-.52,3.47-.86a6.32,6.32,0,0,0,3.08-1.71c.86-1,1.1-3.3,1.24-5.16.07-.88.16-2.19.23-3.17.11-1.55.44-2.54,1-2.83.16-.07.24,0,.12.22a3.31,3.31,0,0,0-.35,1.17,7.73,7.73,0,0,1,.87-.58c.79-.43,1.33-.66,2.21-1.12a15.28,15.28,0,0,0,2.24-1.5A6.23,6.23,0,0,0,29,74.21a1.64,1.64,0,0,1-.23-.4,2.55,2.55,0,0,1-2,1A1.77,1.77,0,0,0,26.25,73,12.14,12.14,0,0,1,25,72c-1.13-1.24-.16-3.86-1.32-5.43-.08-.17.09-.12.28.06a4.21,4.21,0,0,1,.94,2.61,6,6,0,0,0,.5,2.17c.63,1,2.06,1.21,2,2.69.45-.12,1-.56,1-1a1.26,1.26,0,0,0-.36-.76c-.05,0,0-.13.16-.07.34.1.5.52.65.82a3.77,3.77,0,0,0,.54.89c.42.48.92.72,1,1.5a1.36,1.36,0,0,0,.94-1c-.2-.57-.07-1.12-.67-1.51-.08-.06,0-.19.28,0,.77.32.65,1.23,1,1.73a1.74,1.74,0,0,0,1,.73,1.67,1.67,0,0,1,.67-1.25.81.81,0,0,0-.38-.64c-.08-.06-.06-.19.27,0,.7.35.49,1.34,1.42,1.73.26-.82,1.26-.53,2.21-.29a8,8,0,0,0,1.56.29c1.88.09,2.19-1.17,3.84-1.58a1.82,1.82,0,0,1,.58-1.89,1.44,1.44,0,0,0-2.22.16c-.08.11-.07-.09.06-.28a1.62,1.62,0,0,1,2.11-.47c0-.25.09-.67.24-.68a1.75,1.75,0,0,0-2.48.15c-.09.1-.07-.09,0-.24A1.81,1.81,0,0,1,43.48,70c0-.17.08-.53.28-.54a2,2,0,0,0-1.67-.57c-1.89.19-2.41,2.28-4.46,2.11a11.67,11.67,0,0,1-1.84-.65c-.48-.17-1.07-.33-1.6-.46-1.46-.34-2.82-.36-3.57-1.34a2.67,2.67,0,0,1-.56-1.33c0-.27.06-.39.13-.21.45.88.92,1.7,2,1.91a7.75,7.75,0,0,0,.81-3.6c-.48-.22-.48-.44-.63-.5a3.56,3.56,0,0,1-.6,2.29,2.31,2.31,0,0,0-1.68-1.8c-.1,0-.11-.19.31-.16a2,2,0,0,1,1.26.59,4.13,4.13,0,0,0-.23-2.67,3.5,3.5,0,0,0-1.08-1.41c-.1-.08-.06-.19.28,0a3.22,3.22,0,0,1,1.68,2.53c.45.27.64.87,1.29.7-.55-.62-.28-1.65-1.14-3.15a4.59,4.59,0,0,0-2.12-1.88c-1.28-.63-2.83-1.07-3.81-1.47A2.35,2.35,0,0,1,24.74,56a1.92,1.92,0,0,1-.76-.64,1.28,1.28,0,0,0-.31.77,2,2,0,0,1-1.09-1.61c-.21,0-.64,1.25-2.2.66.93-1-.34-1.72.66-2.87.19-.24.47-.3.34-.12-.91,1.3.19,1.75-.23,2.6,1,.09,1-1.21,1.91-1.19a1.79,1.79,0,0,0,.36,1.61,1.52,1.52,0,0,1,.85-.75,1.6,1.6,0,0,0,1.29,1.23c.93.21,2-.34,2.74-.24a1.3,1.3,0,0,1,1,.73,3.07,3.07,0,0,0,.58-1.89c-1.48-.93-3.89,1.06-4.59-.62a2,2,0,0,1-.13-1c.21-1.36,1.1-2,2.71-1.9.71.06,2.26.39,2.67.08s.25-1.21.05-1.63c-.42-.11-.9-.39-.88-.7s.28.3.83.13c.16-.07.24-.63.14-.66a7.28,7.28,0,0,0-3.2-.43c-.16.48-.54.53-.57.9a2.11,2.11,0,0,1-.52,1.37c-.11.07-.1,0,0-.24a1.52,1.52,0,0,0,.05-.92c-.25-.54-1.31-.46-1.34-1.06,0-.25.13-.22,1.18,0,.45.1.49.11.55,0,.18-.39-.42-.6-.95-.73a7.24,7.24,0,0,0-3.7-.09c.63.3.8.9.6,1.19s0-.3-.75-.73-2.14-.54-2.41-.17a2.24,2.24,0,0,0-.15,1.13,1.8,1.8,0,0,0,.78,1.34c.75.5,1.25.22,1.18.38-.16.34-1.13.29-1.7-.16a2.33,2.33,0,0,1-.91-1.58A2.42,2.42,0,0,1,19,46.66a2.36,2.36,0,0,1,2-.29,6.68,6.68,0,0,1,2.21-.28A4,4,0,0,0,21,45.46m9.53,6a2,2,0,0,1-.75.9,7.15,7.15,0,0,0,1.91.19,1,1,0,0,0,.8-1.49c0-.05,0-.19.17-.09a1.22,1.22,0,0,1-.23,2.22c-.93.33-2.09-.17-2.91-.3a2.13,2.13,0,0,1,.23.65c.22.07.79.23.77.44a7.34,7.34,0,0,1-.47,2c-.24.53-.67,1.15-1.2,1.22.11-1.85-1.95-.57-3.11-.95-.1,1.31,2,1.66,4.15,2.6a6.34,6.34,0,0,1,3,2.24A16.92,16.92,0,0,1,35.7,59.5c.43-.22.83-.42.91-.83a7.49,7.49,0,0,0,0-1.69c-.35-2.57,2.14-4,3.82-2.68a.71.71,0,0,0-.11.32,3.39,3.39,0,0,1,1.42.81,1.14,1.14,0,0,0-.24.41,2.32,2.32,0,0,1,1.13,1.08,2.93,2.93,0,0,0-.54.75,9.47,9.47,0,0,0-.46,2.24,4.16,4.16,0,0,1-.79,1.88c-.91,1.08-2.78,1.67-3.7,2.81-.32.39-.32,1.22.22,1.42a2.18,2.18,0,0,1-1.95.69,1,1,0,0,0,.79.66c-.78,1.57-2.16.78-2.84,1.21a3.28,3.28,0,0,1-.17.46,16.281,16.281,0,0,1,3,.88,3.34,3.34,0,0,0,2.38.47,7.13,7.13,0,0,0,1.49-1.08,3.24,3.24,0,0,1,2.64-.86A2.79,2.79,0,0,1,45,71.52h-.34a5.15,5.15,0,0,1,.07,1.27,1.07,1.07,0,0,0-.41,0,3.21,3.21,0,0,1-.3,1.44,2.11,2.11,0,0,0-1.28-.06c-1.24.4-2.06,1.74-4,1.57a9.909,9.909,0,0,1-1.51-.25,6.57,6.57,0,0,0-1.38-.29c-.35.05-.37.28-.44.66a1.75,1.75,0,0,1-1.51-1.12c-.38.28-.35.77-.36,1.22a2.35,2.35,0,0,1-1.8-.89,2,2,0,0,1-1.79,1,1.47,1.47,0,0,0-.38-1.24,8.92,8.92,0,0,1-1.85,1.63,23.24,23.24,0,0,1,4.62,3c1.33,1.14,2.89,2.93,3,4.77S34,87.36,32.84,88.2s-2.06,1.51-3.13,2.23c-.1.06-.1.11-.07.2a7.38,7.38,0,0,0,1.07,2c.24.31.73.88,1.21.9.75,0,1.81-.66,2.66-.77a2.44,2.44,0,0,1,2.62,3.36.88.88,0,0,0-.38-.07,3.79,3.79,0,0,1-.36,1.61,1.05,1.05,0,0,0-.45-.17A3.12,3.12,0,0,1,35.3,99a1.69,1.69,0,0,0-.86-.35c-2.65-.11-3.88.24-4.82-.37a5.28,5.28,0,0,1-.91-1.08c-.28-.37-.6-1-.89-1a.75.75,0,0,0-.79.25,1.72,1.72,0,0,1-.36-1.27,1.27,1.27,0,0,0-1,.44,2.58,2.58,0,0,1-.36-1.71,1.24,1.24,0,0,0-1.15.5,2,2,0,0,1-.09-2,1.85,1.85,0,0,1-1.38-1.16c1.06-.45,1.21-1.13,1.56-1.89.46-1,3.4-1.1,3.71-2.51a2.2,2.2,0,0,0-.21-1.33c-.79-1.47-3.29-1.93-5.44-1.92a16.65,16.65,0,0,1-.45,3.16A5.56,5.56,0,0,1,20.74,89a6.81,6.81,0,0,1-3.06,1.57c-1.13.33-2.12.55-3.3.83-.19,0,.1,2,.7,3.34.33.71.46,1.09,1,1a13.19,13.19,0,0,1,2.67-.57A2.72,2.72,0,0,1,21,99.31a1.13,1.13,0,0,0-.32-.13,3.51,3.51,0,0,1-.46,1.23,1.22,1.22,0,0,0-.43-.21,2.55,2.55,0,0,1-.88,1.28,1.5,1.5,0,0,0-1-.48c-2.86-.1-4.09.32-5.25-.74a4.57,4.57,0,0,1-.93-1.49c-.49-1.13-.87-1.75-1.71-.93a1.64,1.64,0,0,1-.15-1.6,1.79,1.79,0,0,0-1.19.19A1.91,1.91,0,0,1,8.7,94.6,2,2,0,0,1,7,93a2.05,2.05,0,0,0,1.33-.54,2,2,0,0,1-1.49-1.63,2.35,2.35,0,0,0,1.34-.35c.7-.54.48-1.64,1.55-2,1.29-.43,3.82.15,3.89-1.46A13.52,13.52,0,0,0,13,84.25a10.73,10.73,0,0,1-.35-2.73c-6,.57-7.86-3.38-7.69-6.58.14-2.62,1.08-4.43,2.59-7.45,1.87-3.71,3.22-6.39,3.11-8.94-.05-1.17-.48-2.54-1.35-2.78a1.45,1.45,0,0,0-1.48,2.38,1.6,1.6,0,0,0,1.42.5,1.4,1.4,0,0,1-1,1.54,3.38,3.38,0,0,1-1.57,3.54,2.77,2.77,0,0,0-.1-.5c-.82.63-2.56,1.3-3.7.53a10.48,10.48,0,0,0,.73-.88,4.14,4.14,0,0,0,.86-2.18c.06-.88.09-1.74.11-2.46.06-2.27,1.56-4.62,4.33-4.41,2.34.17,3.66,2.08,3.78,4.63.13,2.94-1.35,6.32-3.36,11A13.85,13.85,0,0,0,7.8,74.82,3.09,3.09,0,0,0,10.85,78a4.52,4.52,0,0,0,2.92-1,6.491,6.491,0,0,0,.45-.61c1.33-1.84,4.06-3,4.22-5.94a2,2,0,0,1-2.29-1c.82-.3,1.4-1,1.2-2.66a5,5,0,0,1,0-.58,1.62,1.62,0,0,0-1,.75c-1.48-1.53-.71-3.48-.21-4.84a2.11,2.11,0,0,1-2.17-1.59,1,1,0,0,0,.89-1,4.75,4.75,0,0,0-.51-1.48,9.88,9.88,0,0,1-1.2-4.6A2.25,2.25,0,0,1,12,51.36c.7,0,1.19-.38,1.22-.83a5.75,5.75,0,0,1,.22-1.46,1.82,1.82,0,0,1-.27-2A1.72,1.72,0,0,0,14.22,47a7.81,7.81,0,0,1,.77-.8,2,2,0,0,1,.32-1.36,2.86,2.86,0,0,0,.84.21c1.38.14,4.66-.83,7.08.08a3.41,3.41,0,0,1,1.25.8,13.82,13.82,0,0,1,1.68.29,11.789,11.789,0,0,1,1.61.56c.18,0,.67.07,1.17.12a6.08,6.08,0,0,1,2.36.64c.27.3,0,.84,0,1.42s.28,1.49-.09,2.13a.79.79,0,0,1-.58.36" transform="translate(-2.83 -44.79)" fill="#1d1d1b"/>
            <path id="Pfad_2" data-name="Pfad 2" d="M22.31,48.61c-.07.34-.36.42-.36.17,0-.73-.77-1.09-1.57-1.17-.21,0,0-.17.22-.19.77-.07,1.88.41,1.71,1.19" transform="translate(-2.83 -44.79)" fill="#1d1d1b"/>
            <path id="Pfad_3" data-name="Pfad 3" d="M15.76,55.08c-.27,1.55.56,1.65.61,2.79A1.63,1.63,0,0,0,17.88,57c.06-.09.11,0,.06.2a1.8,1.8,0,0,1-2.21,1.24c.44-1-.84-2-.15-3.32.13-.25.2-.2.18-.07" transform="translate(-2.83 -44.79)" fill="#1d1d1b"/>
            <path id="Pfad_4" data-name="Pfad 4" d="M18.52,59.28c.09-.12.17-.09.13,0-.77,2.57,1.12,2.75,1.27,5a2.14,2.14,0,0,0,1.4-1.61c.06-.2.16-.09.15.19a2.76,2.76,0,0,1-.37,1.31,2.06,2.06,0,0,1-2,.95c.6-1.93-1-2.64-1-4.38a2.6,2.6,0,0,1,.45-1.44" transform="translate(-2.83 -44.79)" fill="#1d1d1b"/>
            <path id="Pfad_5" data-name="Pfad 5" d="M28.56,63.9c-.06-.09-.07-.26.27.05,1.54,1.41,0,3.86,1.05,5.07A2.22,2.22,0,0,1,27,67.76c-.07-.41.22.14.61.4a2.22,2.22,0,0,0,1.3.36c-.4-1.51.82-2.78-.31-4.62" transform="translate(-2.83 -44.79)" fill="#1d1d1b"/>
        </g>
        <path id="Pfad_6" data-name="Pfad 6" d="M51.65,16.77V39.35H74.23Z" fill="#009fe3"/>
        <path id="Pfad_7" data-name="Pfad 7" d="M54.14,84.47H77.4V61.21H54.14Zm.68-22.58h21.9v21.9H54.82Z" transform="translate(-2.83 -44.79)" fill="#1d1d1b"/>
        <path id="Pfad_8" data-name="Pfad 8" d="M86.86,61.94h2.52v2.82h0l2.25-2.82h3.11l-3,3.2,3.46,5H92.1l-2-3.19-.7.77v2.42H86.86Z" transform="translate(-2.83 -44.79)" fill="#1d1d1b"/>
        <path id="Pfad_9" data-name="Pfad 9" d="M101.57,68.8a2.42,2.42,0,0,0,.27,1.33H99.53a1.55,1.55,0,0,1-.08-.56h0a2.41,2.41,0,0,1-1.91.71c-1.15,0-2.1-.55-2.1-1.8,0-1.88,2.2-1.82,3.36-2,.31-.06.62-.15.62-.53s-.38-.55-.75-.55c-.7,0-.83.35-.85.61H95.68a1.73,1.73,0,0,1,1-1.61,4.8,4.8,0,0,1,2-.34c2.84,0,2.82,1.18,2.82,2.32Zm-2.18-1.34a4.49,4.49,0,0,1-.9.28c-.5.12-.76.24-.76.65a.65.65,0,0,0,.71.55.91.91,0,0,0,1-.93Z" transform="translate(-2.83 -44.79)" fill="#1d1d1b"/>
        <path id="Pfad_10" data-name="Pfad 10" d="M102.85,64.17h2.2v.76h0A2.16,2.16,0,0,1,107,64a1.91,1.91,0,0,1,2,2v4.09h-2.27V67c0-.69-.08-1.17-.75-1.17-.39,0-.9.19-.9,1.15v3.14H102.8Z" transform="translate(-2.83 -44.79)" fill="#1d1d1b"/>
        <path id="Pfad_11" data-name="Pfad 11" d="M113,64.17h1.22v1.4H113v2.08c0,.55.13.79.7.79a4.409,4.409,0,0,0,.52,0v1.72c-.46,0-1,.07-1.46.07-1,0-2-.15-2-1.78V65.57h-1v-1.4h1V62.36H113Z" transform="translate(-2.83 -44.79)" fill="#1d1d1b"/>
        <path id="Pfad_12" data-name="Pfad 12" d="M118.08,70.28a3.13,3.13,0,1,1,3.25-3.13,3,3,0,0,1-3.25,3.13Zm0-4.6c-.86,0-1,.84-1,1.47s.12,1.48,1,1.48,1-.85,1-1.48S118.94,65.68,118.08,65.68Z" transform="translate(-2.83 -44.79)" fill="#1d1d1b"/>
        <path id="Pfad_13" data-name="Pfad 13" d="M122.35,64.17h2.19v.76h0a2.19,2.19,0,0,1,1.94-.9,1.91,1.91,0,0,1,2,2v4.09h-2.27V67c0-.69-.08-1.17-.74-1.17-.39,0-.91.19-.91,1.15v3.14h-2.27Z" transform="translate(-2.83 -44.79)" fill="#1d1d1b"/>
        <path id="Pfad_14" data-name="Pfad 14" d="M133.27,68.16,137.08,64h-3.59V61.9h6.92v1.83L136.57,68h4v2.1h-7.32Z" transform="translate(-2.83 -44.79)" fill="#1d1d1b"/>
        <path id="Pfad_15" data-name="Pfad 15" d="M147.7,70.13h-2.2v-.76h0a2.17,2.17,0,0,1-1.94.91,1.92,1.92,0,0,1-2-2V64.17h2.27V67.3c0,.68.08,1.17.75,1.17.39,0,.9-.2.9-1.15V64.17h2.28Zm-5.38-8.08h2v1.49h-2Zm2.61,0h1.95v1.49h-1.95Z" transform="translate(-2.83 -44.79)" fill="#1d1d1b"/>
        <path id="Pfad_16" data-name="Pfad 16" d="M149,64.17h2.18v1h0a1.73,1.73,0,0,1,1.67-1.1,2.52,2.52,0,0,1,.67.09v2a2.36,2.36,0,0,0-.9-.14c-.89,0-1.37.52-1.37,1.8v2.35H149Z" transform="translate(-2.83 -44.79)" fill="#1d1d1b"/>
        <path id="Pfad_17" data-name="Pfad 17" d="M156.5,63.53h-2.28V61.94h2.28Zm-2.28.64h2.28v6h-2.28Z" transform="translate(-2.83 -44.79)" fill="#1d1d1b"/>
        <path id="Pfad_18" data-name="Pfad 18" d="M161.64,66.43a.85.85,0,0,0-.26-.56.83.83,0,0,0-.57-.19c-.87,0-1,.75-1,1.48s.13,1.47,1,1.47a.92.92,0,0,0,.88-.88h2.17a2.74,2.74,0,0,1-1,1.87,3.29,3.29,0,0,1-2.07.66,3.13,3.13,0,1,1,0-6.25c1.57,0,2.9.76,3,2.4Z" transform="translate(-2.83 -44.79)" fill="#1d1d1b"/>
        <path id="Pfad_19" data-name="Pfad 19" d="M164.84,61.94h2.27v2.88h0A2.2,2.2,0,0,1,169,64a1.91,1.91,0,0,1,2,2v4.09h-2.27V67c0-.69-.08-1.17-.74-1.17-.39,0-.91.19-.91,1.15v3.14h-2.27Z" transform="translate(-2.83 -44.79)" fill="#1d1d1b"/>
        <path id="Pfad_20" data-name="Pfad 20" d="M92.79,83.63a2.85,2.85,0,0,1-2.33,1,3.91,3.91,0,0,1-3.91-4.21,4,4,0,0,1,4-4.38,3.53,3.53,0,0,1,3.77,3.07H91.94a1.19,1.19,0,0,0-1.19-1c-1.73,0-1.68,1.82-1.68,2.38a1.87,1.87,0,0,0,1.85,2.11,1.25,1.25,0,0,0,1.31-.9H91.12V80h3.35v4.51h-1.6Z" transform="translate(-2.83 -44.79)" fill="#1d1d1b"/>
        <path id="Pfad_21" data-name="Pfad 21" d="M97.73,82a1.11,1.11,0,0,0,1.15,1.15,1.15,1.15,0,0,0,1-.42H102a3.29,3.29,0,1,1-3.26-4.37c2.36,0,3.39,1.32,3.39,3.64Zm2.18-1.19a1,1,0,0,0-1-1,1.08,1.08,0,0,0-1.17,1Z" transform="translate(-2.83 -44.79)" fill="#1d1d1b"/>
        <path id="Pfad_22" data-name="Pfad 22" d="M106.5,80.25a.56.56,0,0,0-.26-.45.82.82,0,0,0-.51-.17c-.32,0-.68.07-.68.46,0,.17.13.25.26.31.38.16,1.24.21,2,.46a1.72,1.72,0,0,1,1.42,1.66c0,1.65-1.58,2.1-3,2.1s-2.94-.56-3-2.1h2.17a.73.73,0,0,0,.27.53,1,1,0,0,0,.61.17c.3,0,.77-.11.77-.46s-.2-.44-1.25-.63c-1.73-.3-2.43-.85-2.43-1.87,0-1.5,1.61-1.89,2.81-1.89s2.83.35,2.89,1.88Z" transform="translate(-2.83 -44.79)" fill="#1d1d1b"/>
        <path id="Pfad_23" data-name="Pfad 23" d="M115.9,84.47h-2.19v-.75h0a2.21,2.21,0,0,1-1.94.9,1.92,1.92,0,0,1-2-2v-4.1H112v3.12c0,.69.08,1.17.74,1.17.39,0,.91-.2.91-1.15V78.52h2.27Z" transform="translate(-2.83 -44.79)" fill="#1d1d1b"/>
        <path id="Pfad_24" data-name="Pfad 24" d="M117.21,78.52h2.19v.75h0a2.21,2.21,0,0,1,1.94-.9,1.91,1.91,0,0,1,2,2v4.08h-2.27v-3.1c0-.69-.08-1.17-.74-1.17-.39,0-.91.2-.91,1.15v3.14h-2.27Z" transform="translate(-2.83 -44.79)" fill="#1d1d1b"/>
        <path id="Pfad_25" data-name="Pfad 25" d="M130.9,84.47h-2.19v-.65h0a1.81,1.81,0,0,1-1.74.8c-1.69,0-2.5-1.66-2.5-3.15s.54-3.1,2.53-3.1a2,2,0,0,1,1.63.8h0V76.28h2.27ZM127.71,80c-.82,0-1,.77-1,1.47s.18,1.48,1,1.48,1-.77,1-1.48S128.52,80,127.71,80Z" transform="translate(-2.83 -44.79)" fill="#1d1d1b"/>
        <path id="Pfad_26" data-name="Pfad 26" d="M132.21,76.28h2.27v2.88h0a2.18,2.18,0,0,1,1.86-.79,1.91,1.91,0,0,1,2,2v4.08h-2.27v-3.1c0-.69-.08-1.17-.75-1.17-.39,0-.9.2-.9,1.15v3.14h-2.27Z" transform="translate(-2.83 -44.79)" fill="#1d1d1b"/>
        <path id="Pfad_27" data-name="Pfad 27" d="M141.57,82a1.2,1.2,0,0,0,2.11.73h2.12a3.29,3.29,0,1,1-3.26-4.37c2.37,0,3.39,1.32,3.39,3.64Zm2.18-1.19a1,1,0,0,0-1-1,1.08,1.08,0,0,0-1.17,1Z" transform="translate(-2.83 -44.79)" fill="#1d1d1b"/>
        <path id="Pfad_28" data-name="Pfad 28" d="M149.22,77.87H147V76.28h2.27Zm-2.27.65h2.27v6H147Z" transform="translate(-2.83 -44.79)" fill="#1d1d1b"/>
        <path id="Pfad_29" data-name="Pfad 29" d="M153.31,78.52h1.21v1.4h-1.21V82c0,.55.12.8.7.8a4.381,4.381,0,0,0,.51,0v1.72c-.46,0-1,.07-1.46.07-1,0-2-.15-2-1.78V79.92h-1v-1.4h1V76.7h2.28Z" transform="translate(-2.83 -44.79)" fill="#1d1d1b"/>
        <path id="Pfad_30" data-name="Pfad 30" d="M158.89,80.25a.56.56,0,0,0-.26-.45.82.82,0,0,0-.5-.17c-.33,0-.69.07-.69.46,0,.17.13.25.26.31.38.16,1.24.21,2,.46a1.71,1.71,0,0,1,1.42,1.66c0,1.65-1.58,2.1-3,2.1s-2.94-.56-3-2.1h2.17a.73.73,0,0,0,.27.53,1,1,0,0,0,.61.17c.3,0,.77-.11.77-.46s-.19-.44-1.25-.63c-1.73-.3-2.43-.85-2.43-1.87,0-1.5,1.62-1.89,2.81-1.89s2.83.35,2.89,1.88Z" transform="translate(-2.83 -44.79)" fill="#1d1d1b"/>
        <path id="Pfad_31" data-name="Pfad 31" d="M168.28,84.47h-2.19v-.65h0a1.85,1.85,0,0,1-1.75.8c-1.69,0-2.5-1.66-2.5-3.15s.54-3.1,2.54-3.1a1.94,1.94,0,0,1,1.62.8h0V76.28h2.27ZM165.09,80c-.81,0-1,.77-1,1.47s.19,1.48,1,1.48,1-.77,1-1.48S165.9,80,165.09,80Z" transform="translate(-2.83 -44.79)" fill="#1d1d1b"/>
        <path id="Pfad_32" data-name="Pfad 32" d="M171.88,77.87h-2.27V76.28h2.27Zm-2.27.65h2.27v6h-2.27Z" transform="translate(-2.83 -44.79)" fill="#1d1d1b"/>
        <path id="Pfad_33" data-name="Pfad 33" d="M173.2,78.52h2.18v1h0a1.75,1.75,0,0,1,1.68-1.1,2.52,2.52,0,0,1,.67.09v2a2.33,2.33,0,0,0-.9-.15c-.89,0-1.38.53-1.38,1.8v2.35H173.2Z" transform="translate(-2.83 -44.79)" fill="#1d1d1b"/>
        <path id="Pfad_34" data-name="Pfad 34" d="M180.37,82a1.13,1.13,0,0,0,1.16,1.15,1.15,1.15,0,0,0,1-.42h2.12a3.29,3.29,0,1,1-3.26-4.37c2.36,0,3.38,1.32,3.38,3.64Zm2.18-1.19a1,1,0,0,0-1-1,1.09,1.09,0,0,0-1.18,1Z" transform="translate(-2.83 -44.79)" fill="#1d1d1b"/>
        <path id="Pfad_35" data-name="Pfad 35" d="M185.75,76.28H188v4l1.44-1.72H192l-2.12,2.25,2.46,3.7H189.6l-1.21-2.15-.4.43v1.72h-2.28Z" transform="translate(-2.83 -44.79)" fill="#1d1d1b"/>
        <path id="Pfad_36" data-name="Pfad 36" d="M195.77,78.52H197v1.4h-1.22V82c0,.55.13.8.7.8a4.551,4.551,0,0,0,.52,0v1.72c-.46,0-1,.07-1.46.07-1,0-2-.15-2-1.78V79.92h-1v-1.4h1V76.7h2.27Z" transform="translate(-2.83 -44.79)" fill="#1d1d1b"/>
        <path id="Pfad_37" data-name="Pfad 37" d="M200.28,77.87H198V76.28h2.27Zm-2.27.65h2.27v6H198Z" transform="translate(-2.83 -44.79)" fill="#1d1d1b"/>
        <path id="Pfad_38" data-name="Pfad 38" d="M204.59,84.62a3.13,3.13,0,1,1,3.25-3.13,3,3,0,0,1-3.25,3.13Zm0-4.6c-.86,0-1,.84-1,1.47s.11,1.48,1,1.48,1-.85,1-1.48-.13-1.49-1-1.49Z" transform="translate(-2.83 -44.79)" fill="#1d1d1b"/>
        <path id="Pfad_39" data-name="Pfad 39" d="M208.85,78.52H211v.75h0a2.19,2.19,0,0,1,1.94-.9,1.92,1.92,0,0,1,2,2v4.08h-2.27v-3.1c0-.69-.08-1.17-.75-1.17-.39,0-.91.2-.91,1.15v3.14h-2.27Z" transform="translate(-2.83 -44.79)" fill="#1d1d1b"/>
    </g>
</svg>
