<?xml version="1.0" encoding="UTF-8"?>
<!-- Generator: Adobe Illustrator 23.0.4, SVG Export Plug-In . SVG Version: 6.00 Build 0)  -->
<svg version="1.1" id="Gruppe_494" xmlns="http://www.w3.org/2000/svg" xmlns:xlink="http://www.w3.org/1999/xlink" x="0px" y="0px" viewBox="0 0 46 46" style="enable-background:new 0 0 46 46;" xml:space="preserve">
<style type="text/css">
	.st0{fill:#707070;enable-background:new    ;}
	.st1{fill:#FFFFFF;}
</style>
<rect id="Rechteck_108" y="0" class="st0" width="46" height="46"/>
<g id="Gruppe_1290" transform="translate(-777.002 -3798.998)">
	<path id="Vereinigungsmenge_4" class="st1" d="M795.3,3819l-4.7-4.7v1.9c0,0.6-0.5,1.2-1.2,1.2s-1.2-0.5-1.2-1.2v-4.7   c0-0.6,0.5-1.2,1.2-1.2h4.7c0.6,0,1.2,0.5,1.2,1.2s-0.5,1.2-1.2,1.2h-1.9l4.7,4.7c0.5,0.5,0.5,1.2,0,1.7   C796.6,3819.5,795.8,3819.5,795.3,3819L795.3,3819z"/>
	<path id="Vereinigungsmenge_2" class="st1" d="M810.5,3833.7h-4.7c-0.6,0-1.2-0.5-1.2-1.2c0-0.6,0.5-1.2,1.2-1.2h1.9l-4.7-4.7   c-0.5-0.5-0.4-1.2,0-1.7c0.5-0.4,1.2-0.4,1.6,0l4.7,4.7v-1.9c0-0.6,0.5-1.2,1.2-1.2s1.2,0.5,1.2,1.2v4.7   C811.7,3833.2,811.2,3833.7,810.5,3833.7L810.5,3833.7z"/>
	<path id="Vereinigungsmenge_1" class="st1" d="M803,3819c-0.5-0.5-0.5-1.2,0-1.7l0,0l4.7-4.7h-1.9c-0.6,0-1.2-0.5-1.2-1.2   s0.5-1.2,1.2-1.2h4.7c0.6,0,1.2,0.5,1.2,1.2v4.7c0,0.6-0.5,1.2-1.2,1.2c-0.6,0-1.2-0.5-1.2-1.2v-1.9l-4.7,4.7   C804.2,3819.5,803.5,3819.5,803,3819L803,3819L803,3819z"/>
	<path id="Vereinigungsmenge_3" class="st1" d="M789.5,3833.7c-0.6,0-1.2-0.5-1.2-1.2v-4.7c0-0.6,0.5-1.2,1.2-1.2   c0.6,0,1.2,0.5,1.2,1.2v1.9l4.7-4.7c0.5-0.5,1.2-0.5,1.7,0s0.5,1.2,0,1.7l-4.7,4.7h1.9c0.6,0,1.2,0.5,1.2,1.2s-0.5,1.2-1.2,1.2   L789.5,3833.7L789.5,3833.7z"/>
</g>
</svg>