<?xml version="1.0" encoding="UTF-8"?>
<!-- Generator: Adobe Illustrator 23.0.3, SVG Export Plug-In . SVG Version: 6.00 Build 0)  -->
<svg version="1.1" id="Ebene_1" xmlns="http://www.w3.org/2000/svg" xmlns:xlink="http://www.w3.org/1999/xlink" x="0px" y="0px" viewBox="0 0 24 32" style="enable-background:new 0 0 24 32;" xml:space="preserve">
<path id="right-arrow-white" d="M2.2,10.9c-0.4,0.4-0.4,1-0.1,1.4c0.4,0.4,1,0.4,1.4,0.1l0,0l7.4-7.4v24.3c0,0.6,0.4,1,1,1l0,0  c0.6,0,1-0.5,1-1l0,0V5.1l7.4,7.4c0.4,0.4,1,0.4,1.5,0c0.4-0.4,0.4-1,0-1.4l0,0l-9.1-9.1c-0.4-0.4-1-0.4-1.4,0l0,0L2.2,10.9z"/>
</svg>