<?xml version="1.0" encoding="UTF-8"?>
<!-- Generator: Adobe Illustrator 23.0.0, SVG Export Plug-In . SVG Version: 6.00 Build 0)  -->
<svg version="1.1" id="Ebene_1" xmlns="http://www.w3.org/2000/svg" xmlns:xlink="http://www.w3.org/1999/xlink" x="0px" y="0px" viewBox="0 0 30.8 30.8" style="enable-background:new 0 0 30.8 30.8;" xml:space="preserve">
<style type="text/css">
	.st0{fill:#DC4E41;}
	.st1{fill:#FFFFFF;}
</style>
<g id="google-plus_1_" transform="translate(0)">
	<g id="Gruppe_194" transform="translate(0 0)">
		<circle id="XMLID_30_" class="st0" cx="15.4" cy="15.4" r="15.4"/>
	</g>
	<g id="Gruppe_196" transform="translate(6.076 9.005)">
		<g id="Gruppe_195">
			<path id="Pfad_20" class="st1" d="M-0.6,6.1c0-3.9,3.2-7,7-7C8-0.8,9.7-0.2,11,0.9c-0.5,0.7-1.1,1.2-1.7,1.8     C8,1.8,6.5,1.6,5.1,1.9C2.8,2.6,1.5,5,2.3,7.3s3.2,3.6,5.4,2.8C7.8,10.1,7.9,10,8,10c1.1-0.4,2-1.4,2.3-2.6c-1.3,0-2.6,0-3.9,0     c0-0.8,0-1.5,0-2.4c2.2,0,4.4,0,6.6,0c0.2,2-0.2,3.9-1.4,5.5c-1.8,2.2-4.8,2.9-7.4,2C1.3,11.7-0.6,9.1-0.6,6.1z"/>
			<path id="Pfad_21" class="st1" d="M17.2,3.1h2c0,0.7,0,1.3,0,2c0.7,0,1.3,0,2,0v2h-2c0,0.7,0,1.3,0,2c-0.7,0-1.3,0-2,0     c0-0.7,0-1.3,0-2c-0.7,0-1.3,0-2,0v-2c0.7,0,1.3,0,2,0C17.2,4.4,17.2,3.7,17.2,3.1z"/>
		</g>
	</g>
</g>
</svg>