<?xml version="1.0" encoding="UTF-8"?>
<!-- Generator: Adobe Illustrator 23.0.0, SVG Export Plug-In . SVG Version: 6.00 Build 0)  -->
<svg version="1.1" id="if_logo_social_media_google_plus_1071017" xmlns="http://www.w3.org/2000/svg" xmlns:xlink="http://www.w3.org/1999/xlink" x="0px" y="0px" viewBox="0 0 32 32" style="enable-background:new 0 0 32 32;" xml:space="preserve">
<style type="text/css">
	.st0{fill:#333333;}
	.st1{fill:#FFFFFF;}
</style>
<g id="Gruppe_438">
	<path id="Pfad_71" class="st0" d="M16,0C7.2,0,0,7.2,0,16s7.2,16,16,16s16-7.2,16-16S24.8,0,16,0z"/>
</g>
<g id="Gruppe_196" transform="translate(6.076 9.005)">
	<g id="Gruppe_195">
		<path id="Pfad_20" class="st1" d="M-0.6,7.1c0-3.9,3.2-7,7-7C8,0.2,9.7,0.8,11,1.9c-0.5,0.7-1.1,1.2-1.7,1.8    C8,2.8,6.5,2.6,5.1,2.9C2.8,3.6,1.5,6,2.3,8.3s3.2,3.6,5.4,2.8c0.1,0,0.2,0,0.3-0.1c1.1-0.4,2-1.4,2.3-2.6c-1.3,0-2.6,0-3.9,0    c0-0.8,0-1.5,0-2.4c2.2,0,4.4,0,6.6,0c0.2,2-0.2,3.9-1.4,5.5c-1.8,2.2-4.8,2.9-7.4,2C1.3,12.7-0.6,10.1-0.6,7.1z"/>
		<path id="Pfad_21" class="st1" d="M17.2,4.1h2c0,0.7,0,1.3,0,2c0.7,0,1.3,0,2,0v2h-2c0,0.7,0,1.3,0,2c-0.7,0-1.3,0-2,0    c0-0.7,0-1.3,0-2c-0.7,0-1.3,0-2,0v-2c0.7,0,1.3,0,2,0C17.2,5.4,17.2,4.7,17.2,4.1z"/>
	</g>
</g>
</svg>