<svg xmlns="http://www.w3.org/2000/svg" viewBox="0 0 31 31">
  <defs>
    <style>
      .cls-1 {
        fill: #707070;
      }

      .cls-2 {
        fill: #fff;
      }
    </style>
  </defs>
  <g id="Gruppe_1094" data-name="Gruppe 1094" transform="translate(-861 -837)">
    <circle id="Ellipse_85" data-name="Ellipse 85" class="cls-1" cx="15.5" cy="15.5" r="15.5" transform="translate(861 837)"/>
    <path id="Pfad_287" data-name="Pfad 287" class="cls-2" d="M4.1-5.016A6.571,6.571,0,0,1,4.488-7.5,6.512,6.512,0,0,1,6.018-9.533a11.661,11.661,0,0,0,1.447-1.576,2.767,2.767,0,0,0,.469-1.547,2.367,2.367,0,0,0-.545-1.682,2.09,2.09,0,0,0-1.6-.58,2.3,2.3,0,0,0-1.623.568,2,2,0,0,0-.615,1.541H.7A4.191,4.191,0,0,1,2.115-16.09,5.4,5.4,0,0,1,5.789-17.3a5.272,5.272,0,0,1,3.674,1.2,4.279,4.279,0,0,1,1.318,3.34A5.467,5.467,0,0,1,9-9L7.559-7.582a3.859,3.859,0,0,0-.8,2.566ZM3.9-1.371A1.5,1.5,0,0,1,4.336-2.49a1.6,1.6,0,0,1,1.172-.428,1.587,1.587,0,0,1,1.184.439,1.512,1.512,0,0,1,.434,1.107A1.485,1.485,0,0,1,6.7-.293a1.591,1.591,0,0,1-1.2.434A1.571,1.571,0,0,1,4.318-.293,1.5,1.5,0,0,1,3.9-1.371Z" transform="translate(871 861.297)"/>
  </g>
</svg>