<svg xmlns="http://www.w3.org/2000/svg" viewBox="0 0 31 31" x="0px" y="0px">
    <defs>
        <clipPath id="b">
            <rect width="31" height="31"/>
        </clipPath>
    </defs>
    <g id="a" clip-path="url(#b)">
        <g transform="translate(-861 -837)">
            <circle cx="15.5" cy="15.5" r="15.5" transform="translate(861 837)" fill="#707070"/>
            <g transform="translate(865 840), scale(0.7, 0.7)">
                <path
                      fill="#fff"
                      d="M8,30H24a3.0033,3.0033,0,0,0,3-3V16a3.0033,3.0033,0,0,0-3-3H23V9A7,7,0,0,0,9,9v4H8a3.0033,3.0033,0,0,0-3,3V27A3.0033,3.0033,0,0,0,8,30Zm8.75-7a.75.75,0,0,1-1.5,0V20a.75.75,0,0,1,1.5,0ZM11,9A5,5,0,0,1,21,9v4H11Z"></path>
            </g>
        </g>
    </g>
</svg>
