<svg xmlns="http://www.w3.org/2000/svg" viewBox="0 0 31 31">
    <defs>
        <clipPath id="b">
            <rect width="31" height="31"/>
        </clipPath>
    </defs>
    <g>
        <g transform="translate(-861 -837)">
            <circle cx="15.5" cy="15.5" r="15.5" transform="translate(861 837)" fill="#707070"/>
            <g transform="translate(864 840.128)">
        <path fill="none" d="M0 0h24v24H0z"/>
        <path fill ="#fff" d="M17 6h5v2h-2v13a1 1 0 0 1-1 1H5a1 1 0 0 1-1-1V8H2V6h5V3a1 1 0 0 1 1-1h8a1 1 0 0 1 1 1v3zm1 2H6v12h12V8zM9 4v2h6V4H9z"/>
            </g>
        </g>
    </g>
</svg>
