<svg id="if_online_social_media_rss_734380" xmlns="http://www.w3.org/2000/svg" viewBox="0 0 32 32">
  <defs>
    <style>
      .cls-1 {
        fill: #333;
      }

      .cls-2 {
        fill: #fff;
      }
    </style>
  </defs>
  <g id="Gruppe_442" data-name="Gruppe 442">
    <path id="Pfad_74" data-name="Pfad 74" class="cls-1" d="M16,0A16,16,0,1,0,32,16,16,16,0,0,0,16,0Z"/>
  </g>
  <path id="Pfad_75" data-name="Pfad 75" class="cls-2" d="M21.7,22.647h2.942A15.316,15.316,0,0,0,9.353,7.347v2.934A12.374,12.374,0,0,1,21.7,22.647Zm-10.315.005a2.031,2.031,0,1,0-2.036-2.029A2.031,2.031,0,0,0,11.39,22.652Zm5.116,0h2.945a10.112,10.112,0,0,0-10.1-10.1V15.48a7.165,7.165,0,0,1,7.154,7.168Z"/>
</svg>