<?xml version="1.0" encoding="UTF-8"?>
<!-- Generator: Adobe Illustrator 23.0.4, SVG Export Plug-In . SVG Version: 6.00 Build 0)  -->
<svg version="1.1" id="Capa_1" xmlns="http://www.w3.org/2000/svg" xmlns:xlink="http://www.w3.org/1999/xlink" x="0px" y="0px" viewBox="0 0 97.7 97.7" style="enable-background:new 0 0 97.7 97.7;" xml:space="preserve">
<g>
	<g>
		<path d="M12.6,72.4C5.7,72.4,0,78.1,0,85s5.7,12.6,12.6,12.6S25.3,92,25.3,85S19.6,72.4,12.6,72.4z"/>
		<path d="M2.1,36.4c-0.5,0-1.1,0.2-1.5,0.6C0.3,37.3,0,37.8,0,38.4v16.2c0,1.1,0.8,1.9,1.9,2c21.3,1,38.2,17.8,39.1,39.1    c0,1.1,0.9,1.9,2,1.9h16.2c0.5,0,1.1-0.2,1.4-0.6s0.6-0.9,0.6-1.5C60.8,80,54.4,65.4,43.4,54.3C32.3,43.3,17.7,36.9,2.1,36.4z"/>
		<path d="M69.1,28.6C51.1,10.7,27.3,0.5,2.1,0C1.5,0,1,0.2,0.6,0.6C0.3,1,0,1.5,0,2v16.2c0,1.1,0.9,2,2,2    c40.6,1,74.5,34.9,75.5,75.5c0,1.1,0.9,1.9,2,1.9h16.2c0.5,0,1.1-0.2,1.4-0.6c0.4-0.4,0.6-0.9,0.6-1.4    C97.1,70.3,87,46.5,69.1,28.6z"/>
	</g>
</g>
</svg>