<?xml version="1.0" encoding="UTF-8"?>
<!-- Generator: Adobe Illustrator 23.0.1, SVG Export Plug-In . SVG Version: 6.00 Build 0)  -->
<svg version="1.1" id="Ebene_1" xmlns="http://www.w3.org/2000/svg" xmlns:xlink="http://www.w3.org/1999/xlink" x="0px" y="0px" viewBox="0 0 26.6 32.4" style="enable-background:new 0 0 26.6 32.4;" xml:space="preserve">
<style type="text/css">
	.st0{fill:#FFFFFF;}
</style>
<path class="st0" d="M25.9,17.1c-1-1-2.5-1-3.5,0l-6.6,6.6V2.5c0-1.4-1.1-2.5-2.5-2.5s-2.5,1.1-2.5,2.5v21.3l-6.6-6.6  c-1-1-2.5-1-3.5,0h0c-1,1-1,2.5,0,3.5l9,9c0,0,0,0,0,0h0l2.4,2.3c0.7,0.7,1.8,0.7,2.4,0l2.4-2.4l9-9C26.8,19.6,26.8,18.1,25.9,17.1z  "/>
</svg>