<svg id="_014-speaker-filled-audio-tool" data-name="014-speaker-filled-audio-tool" xmlns="http://www.w3.org/2000/svg" viewBox="0 0 21.461 17.049">
  <defs>
    <style>
      .cls-1 {
        fill: #4e4e4e;
      }
    </style>
  </defs>
  <path id="Pfad_173" data-name="Pfad 173" class="cls-1" d="M10.737,24.779a.975.975,0,0,1-1.6.75L3.812,21.114H.975A.974.974,0,0,1,0,20.14V16.257a.975.975,0,0,1,.975-.975H3.813l5.328-4.415a.975.975,0,0,1,1.6.751V24.779Zm3.745-1.523-.07,0a.974.974,0,0,1-.689-.285l-.13-.131a.974.974,0,0,1-.094-1.27,5.667,5.667,0,0,0-.15-6.945.974.974,0,0,1,.067-1.3l.13-.13a.953.953,0,0,1,.738-.284.976.976,0,0,1,.706.356,7.805,7.805,0,0,1,.2,9.6A.975.975,0,0,1,14.482,23.256Zm4.029,3.012a.976.976,0,0,1-.7.345h-.041a.974.974,0,0,1-.689-.285L16.95,26.2a.975.975,0,0,1-.057-1.316,10.386,10.386,0,0,0-.172-13.57A.975.975,0,0,1,16.76,9.98l.128-.128a.949.949,0,0,1,.719-.286.975.975,0,0,1,.7.327,12.514,12.514,0,0,1,.205,16.376Z" transform="translate(0 -9.565)"/>
</svg>