<svg id="if_twitter_online_social_media_734367" xmlns="http://www.w3.org/2000/svg" viewBox="0 0 32 32">
  <defs>
    <style>
      .cls-1 {
        fill: #333;
      }

      .cls-2 {
        fill: #fff;
      }
    </style>
  </defs>
  <g id="Gruppe_444" data-name="Gruppe 444">
    <path id="Pfad_78" data-name="Pfad 78" class="cls-1" d="M16,0A16,16,0,1,0,32,16,16,16,0,0,0,16,0Z"/>
  </g>
  <path id="Pfad_79" data-name="Pfad 79" class="cls-2" d="M18.226,8.886a3.684,3.684,0,0,0-2.481,3.7l.038.63-.636-.077a10.345,10.345,0,0,1-6.056-2.984l-.84-.836-.215.617a3.718,3.718,0,0,0,.789,3.808c.509.54.394.617-.483.3a1.484,1.484,0,0,0-.6-.141A4.616,4.616,0,0,0,8.2,15.627a4.114,4.114,0,0,0,1.743,1.647l.624.3-.739.011c-.712,0-.738.013-.661.284a3.847,3.847,0,0,0,2.379,2.11l.789.27-.687.412a7.122,7.122,0,0,1-3.41.951,3.752,3.752,0,0,0-1.044.1,9.75,9.75,0,0,0,2.455,1.132A10.736,10.736,0,0,0,18,21.891,11.18,11.18,0,0,0,22.234,16.9a13.26,13.26,0,0,0,.865-3.858c0-.592.038-.669.75-1.376a8.556,8.556,0,0,0,.891-.99c.128-.245.114-.245-.534-.026-1.081.386-1.234.335-.7-.244a3.755,3.755,0,0,0,.865-1.376c0-.038-.191.026-.407.141a6.979,6.979,0,0,1-1.12.437l-.687.219L21.535,9.4a5.19,5.19,0,0,0-1.081-.566A4.345,4.345,0,0,0,18.226,8.886Z"/>
</svg>