<svg xmlns="http://www.w3.org/2000/svg" viewBox="0 0 30.783 30.784">
  <defs>
    <style>
      .cls-1 {
        fill: #43a1ff;
      }
    </style>
  </defs>
  <g id="twitter-logo-button_1_" data-name="twitter-logo-button(1)" transform="translate(-0.001)">
    <g id="Gruppe_159" data-name="Gruppe 159">
      <path id="Pfad_10" data-name="Pfad 10" class="cls-1" d="M15.392,0A15.392,15.392,0,1,0,30.784,15.392,15.409,15.409,0,0,0,15.392,0Zm6.866,11.869c.007.153.011.306.011.46A10.077,10.077,0,0,1,6.758,20.817,7.154,7.154,0,0,0,12,19.35a3.546,3.546,0,0,1-3.31-2.461,3.556,3.556,0,0,0,1.6-.06,3.543,3.543,0,0,1-2.841-3.474c0-.015,0-.03,0-.045a3.528,3.528,0,0,0,1.6.443,3.548,3.548,0,0,1-1.1-4.73,10.059,10.059,0,0,0,7.3,3.7A3.545,3.545,0,0,1,21.3,9.495a7.071,7.071,0,0,0,2.251-.86,3.559,3.559,0,0,1-1.56,1.96,7.043,7.043,0,0,0,2.035-.557A7.126,7.126,0,0,1,22.258,11.869Z"/>
    </g>
  </g>
</svg>