<?xml version="1.0" encoding="UTF-8"?>
<!-- Generator: Adobe Illustrator 23.0.0, SVG Export Plug-In . SVG Version: 6.00 Build 0)  -->
<svg version="1.1" id="Ebene_1" xmlns="http://www.w3.org/2000/svg" xmlns:xlink="http://www.w3.org/1999/xlink" x="0px" y="0px" viewBox="0 0 20 20" style="enable-background:new 0 0 20 20;" xml:space="preserve">
<style type="text/css">
	.st0{fill:none;}
	.st1{fill:#707070;}
	.st2{fill:none;stroke:#707070;}
	.st3{fill:none;stroke:#707070;stroke-linecap:round;}
</style>
<g id="Gruppe_1348" transform="translate(-785 -201)">
	<g id="Gruppe_536" transform="translate(486)">
		<g id="Pfad_73" transform="translate(299 201)">
			<path class="st0" d="M10,1.5c4.7,0,8.5,3.8,8.5,8.5s-3.8,8.5-8.5,8.5S1.5,14.7,1.5,10S5.3,1.5,10,1.5z"/>
			<path class="st1" d="M10,2.5c-4.1,0-7.5,3.4-7.5,7.5s3.4,7.5,7.5,7.5s7.5-3.4,7.5-7.5S14.1,2.5,10,2.5 M10,1.5     c4.7,0,8.5,3.8,8.5,8.5s-3.8,8.5-8.5,8.5S1.5,14.7,1.5,10S5.3,1.5,10,1.5z"/>
		</g>
		<path id="Pfad_75" class="st2" d="M314,211"/>
	</g>
	<line id="Linie_69" class="st3" x1="790.9" y1="209.5" x2="795" y2="213.6"/>
	<line id="Linie_70" class="st3" x1="799.1" y1="209.5" x2="795" y2="213.6"/>
</g>
</svg>