<?xml version="1.0" encoding="UTF-8"?>
<!-- Generator: Adobe Illustrator 23.0.4, SVG Export Plug-In . SVG Version: 6.00 Build 0)  -->
<svg version="1.1" id="Ebene_1" xmlns="http://www.w3.org/2000/svg" xmlns:xlink="http://www.w3.org/1999/xlink" x="0px" y="0px" viewBox="0 0 32 32" style="enable-background:new 0 0 32 32;" xml:space="preserve">
<style type="text/css">
	.st0{fill:#333333;}
	.st1{fill:#FFFFFF;}
	.st2{fill:none;stroke:#FFFFFF;stroke-linecap:round;stroke-miterlimit:10;}
	.st3{fill:#343434;}
</style>
<g id="Vorlage">
</g>
<g id="LY">
	<g>
		<circle class="st0" cx="16" cy="16" r="16"/>
		<g>
			<g>
				<path class="st1" d="M21.6,10.9c0.6,0,1.1,0.5,1.1,1.1v7.4c0,0.6-0.5,1.1-1.1,1.1h-6l-5,3.1v-3.1H9.2c-0.6,0-1.1-0.5-1.1-1.1V12      c0-0.6,0.5-1.1,1.1-1.1H21.6 M21.6,9.4H9.2c-1.4,0-2.6,1.1-2.6,2.6v7.4c0,1.4,1.2,2.6,2.6,2.6v1.6v2.7l2.3-1.4l4.6-2.9h5.6      c1.4,0,2.6-1.1,2.6-2.6V12C24.2,10.5,23.1,9.4,21.6,9.4L21.6,9.4z"/>
			</g>
			<g>
				<line class="st2" x1="17.9" y1="18.3" x2="10" y2="18.3"/>
				<line class="st2" x1="20.9" y1="16.5" x2="10" y2="16.5"/>
				<line class="st2" x1="20.9" y1="14.7" x2="10" y2="14.7"/>
				<line class="st2" x1="20.9" y1="12.9" x2="10" y2="12.9"/>
			</g>
			<g>
				<path class="st1" d="M19.9,18.9l-0.2-0.1c-0.2-0.2-0.4-0.3,0.5-3.7V15l4.1-4.6l0.4-0.5c0.3-0.3,0.7-0.5,1.1-0.5      c0.3,0,0.6,0.1,0.8,0.3L28,11c0.2,0.2,0.4,0.5,0.4,0.8c0,0.4-0.1,0.8-0.4,1l-0.4,0.4l-0.1,0.1l-4.1,4.6h-0.1      C22.5,18.2,20.5,19,20,19h-0.1V18.9z"/>
				<path class="st3" d="M25.8,9.8c0.2,0,0.3,0.1,0.4,0.2l1.4,1.3c0.3,0.3,0.3,0.8,0,1.2l-0.3,0.4c0,0,0,0-0.1,0.1c0,0-4,4.4-4,4.5      c0,0-2.6,1-3.1,1H20c-0.2-0.1,0.6-3.3,0.6-3.3c0.1-0.2,4-4.5,4-4.5s0,0,0.1-0.1l0.3-0.4C25.3,9.9,25.6,9.8,25.8,9.8 M25.8,8.8      c-0.5,0-1.1,0.2-1.4,0.7L24,9.9L23.9,10l-4,4.5l-0.2,0.2l-0.1,0.2c-0.9,3.7-0.8,3.8-0.4,4.2c0.1,0.1,0.4,0.3,0.7,0.3      c0.2,0,0.7,0,3.4-1.1l0.2-0.1l0.2-0.2c0.1-0.1,3.7-4.1,4-4.5l0.1-0.1l0.3-0.4c0.4-0.4,0.5-0.9,0.5-1.4s-0.2-0.9-0.5-1.2      l-1.4-1.3C26.6,9,26.2,8.8,25.8,8.8L25.8,8.8z"/>
			</g>
		</g>
	</g>
</g>
</svg>