<svg xmlns="http://www.w3.org/2000/svg" viewBox="0 0 31 31">
  <defs>
    <style>
      .cls-1 {
        fill: #a41506;
      }

      .cls-2 {
        fill: #fff;
      }
    </style>
  </defs>
  <g id="Gruppe_1289" data-name="Gruppe 1289" transform="translate(-336.082 -3855)">
    <circle id="Ellipse_8" data-name="Ellipse 8" class="cls-1" cx="15.5" cy="15.5" r="15.5" transform="translate(336.082 3855)"/>
    <g id="close-envelope_1_" data-name="close-envelope(1)" transform="translate(342.853 3864.269)">
      <g id="Gruppe_193" data-name="Gruppe 193" transform="translate(0 0)">
        <path id="Pfad_14" data-name="Pfad 14" class="cls-2" d="M8.992,9.452,6.744,7.484.316,12.994a1.316,1.316,0,0,0,.9.352H16.772a1.306,1.306,0,0,0,.893-.352l-6.424-5.51Z" transform="translate(0.094 -0.365)"/>
        <path id="Pfad_15" data-name="Pfad 15" class="cls-2" d="M17.668,2.352a1.307,1.307,0,0,0-.9-.352H1.212a1.3,1.3,0,0,0-.894.354L8.992,9.789Z" transform="translate(0.095 -2)"/>
        <path id="Pfad_16" data-name="Pfad 16" class="cls-2" d="M0,2.878V13.663L6.274,8.331Z" transform="translate(0 -1.738)"/>
        <path id="Pfad_17" data-name="Pfad 17" class="cls-2" d="M9.167,8.332l6.274,5.331V2.875Z" transform="translate(2.733 -1.739)"/>
      </g>
    </g>
  </g>
</svg>