<svg width="29" height="29" viewBox="0 0 29 29" fill="none" xmlns="http://www.w3.org/2000/svg">
<path d="M19.9128 11.1553L16.533 14.681V21.8376C16.533 22.0481 16.4321 22.2059 16.2304 22.3112L13.2037 23.8898C13.0766 24.0219 12.9026 23.8898 12.7497 23.8898C12.5984 23.7846 12.4975 23.5741 12.4975 23.4162V14.681L4.0733 5.89311C3.92197 5.73524 3.87152 5.52475 3.97241 5.31427C4.0733 5.10378 4.22463 4.99854 4.42641 4.99854H16.5835C16.5835 5.1564 16.533 5.36689 16.533 5.52475C16.533 7.99799 17.895 10.1555 19.9128 11.1553Z" fill="black"/>
<rect x="17.8125" y="0.199951" width="10.1866" height="10.6605" rx="5.09329" fill="black"/>
<path d="M24.6964 3.85614C24.6098 3.85959 24.5277 3.90333 24.4676 3.97805C23.8371 4.73406 23.0909 5.50182 22.4151 6.28699L21.3088 5.29425C21.2739 5.26197 21.234 5.23832 21.1913 5.22466C21.1487 5.211 21.1043 5.20761 21.0606 5.21469C21.0169 5.22177 20.9748 5.23918 20.9367 5.2659C20.8987 5.29262 20.8655 5.32812 20.839 5.37034C20.8125 5.41256 20.7934 5.46066 20.7826 5.51183C20.7718 5.563 20.7696 5.61622 20.7762 5.66841C20.7827 5.7206 20.7979 5.77071 20.8208 5.81582C20.8437 5.86093 20.8738 5.90015 20.9095 5.9312L22.2404 7.12548C22.3045 7.18283 22.3837 7.21063 22.4635 7.20377C22.5434 7.19692 22.6184 7.15587 22.675 7.08816C23.3697 6.25528 24.2126 5.40968 24.9376 4.54036C24.9859 4.48453 25.0189 4.41253 25.0324 4.33382C25.0458 4.25511 25.039 4.17338 25.0129 4.09936C24.9868 4.02534 24.9426 3.96249 24.8861 3.91908C24.8296 3.87567 24.7635 3.85373 24.6964 3.85614Z" fill="white"/>
</svg>
