<?xml version="1.0" encoding="UTF-8"?>
<!-- Generator: Adobe Illustrator 23.0.3, SVG Export Plug-In . SVG Version: 6.00 Build 0)  -->
<svg version="1.1" id="Ebene_1" xmlns="http://www.w3.org/2000/svg" xmlns:xlink="http://www.w3.org/1999/xlink" x="0px" y="0px" viewBox="0 0 24 32" style="enable-background:new 0 0 24 32;" xml:space="preserve">
<path id="right-arrow-white" d="M21.8,21.1c0.4-0.4,0.4-1,0.1-1.4c-0.4-0.4-1-0.4-1.4-0.1l0,0L13.1,27V2.7c0-0.6-0.4-1-1-1l0,0  c-0.6,0-1,0.5-1,1l0,0v24.3l-7.4-7.4c-0.4-0.4-1-0.4-1.5,0c-0.4,0.4-0.4,1,0,1.4l0,0l9.1,9.1c0.4,0.4,1,0.4,1.4,0l0,0L21.8,21.1z"/>
</svg>