<?xml version="1.0" encoding="UTF-8"?>
<!-- Generator: Adobe Illustrator 23.0.4, SVG Export Plug-In . SVG Version: 6.00 Build 0)  -->
<svg version="1.1" id="Ebene_1" xmlns="http://www.w3.org/2000/svg" xmlns:xlink="http://www.w3.org/1999/xlink" x="0px" y="0px" viewBox="0 0 32 32" style="enable-background:new 0 0 32 32;" xml:space="preserve">
<style type="text/css">
	.st0{fill:#333333;}
	.st1{fill:#FFFFFF;}
</style>
<g id="Flat_copy">
	<g>
		<path class="st0" d="M16,0C7.2,0,0,7.2,0,16c0,8.8,7.2,16,16,16s16-7.2,16-16C32,7.2,24.8,0,16,0z"/>
	</g>
	<path class="st1" d="M20.9,21.9c0-1.4-0.6-2.8-1.5-3.8c0.9-1,1.4-2.3,1.4-3.7v-0.9h0c0-0.2-0.2-0.4-0.5-0.4h-2.9   c-0.2,0-0.4,0.2-0.5,0.4L17,14.4c0,1-0.8,1.8-1.9,1.8v0h-1c-0.7,0-1.3,0.1-1.9,0.3V8.4c0-0.3-0.2-0.5-0.5-0.5H8.9   c-0.3,0-0.5,0.2-0.5,0.5v17.3c0,0.3,0.2,0.5,0.5,0.5h2.9c0.3,0,0.5-0.2,0.5-0.5v-3.9h0c0-1,0.8-1.8,1.9-1.8h1c1,0,1.9,0.8,1.9,1.8   v0.9h0v2.9c0,0.3,0.2,0.5,0.5,0.5h2.9c0.3,0,0.5-0.2,0.5-0.5l0-2.9L20.9,21.9L20.9,21.9z"/>
	<g>
		<path class="st1" d="M18.9,5c-0.2-0.2-0.5-0.2-0.6,0l-0.2,0.2c-0.2,0.2-0.2,0.4,0,0.6l1,1c0.1,0.1,0.1,0.4,0,0.5L19,7.4    c-0.1,0.1-0.4,0.1-0.5,0l-1-1c-0.5-0.5-0.5-1.3,0-1.9l0.2-0.2c0.5-0.5,1.4-0.5,1.9,0l1,0.9l0.1,0.1c0.1,0.1,0.1,0.3,0,0.5L20.4,6    c-0.1,0.1-0.4,0.1-0.5,0L18.9,5z"/>
		<path class="st1" d="M23.5,5.8c0.2-0.2,0.2-0.4,0-0.6L23.4,5c-0.2-0.2-0.5-0.2-0.6,0l-1,1c-0.1,0.1-0.4,0.1-0.5,0l-0.1-0.1    c-0.1-0.1-0.1-0.3,0-0.5l1-1c0.5-0.5,1.4-0.5,1.9,0l0.2,0.2c0.5,0.5,0.5,1.3,0,1.9l-1,0.9l-0.1,0.1c-0.1,0.1-0.4,0.1-0.5,0    l-0.1-0.1c-0.1-0.1-0.1-0.4,0-0.5L23.5,5.8z"/>
		<path class="st1" d="M18.1,9.5c-0.2,0.2-0.2,0.4,0,0.6l0.2,0.2c0.2,0.2,0.5,0.2,0.6,0l1-1c0.1-0.1,0.4-0.1,0.5,0l0.1,0.1    c0.1,0.1,0.1,0.3,0,0.5l-1,1c-0.5,0.5-1.4,0.5-1.9,0l-0.2-0.2c-0.5-0.5-0.5-1.3,0-1.9l1-0.9l0.1-0.1c0.1-0.1,0.4-0.1,0.5,0    l0.1,0.1c0.1,0.1,0.1,0.4,0,0.5L18.1,9.5z"/>
		<path class="st1" d="M22.7,10.3c0.2,0.2,0.5,0.2,0.6,0l0.2-0.2c0.2-0.2,0.2-0.4,0-0.6l-1-1c-0.1-0.1-0.1-0.3,0-0.5l0.1-0.1    c0.1-0.1,0.4-0.1,0.5,0l1,1c0.5,0.5,0.5,1.3,0,1.9L24,10.9c-0.5,0.5-1.4,0.5-1.9,0l-1-0.9l-0.1-0.1c-0.1-0.1-0.1-0.3,0-0.5    l0.1-0.1c0.1-0.1,0.4-0.1,0.5,0L22.7,10.3z"/>
	</g>
</g>
</svg>