<?xml version="1.0" encoding="UTF-8"?>
<!-- Generator: Adobe Illustrator 23.0.4, SVG Export Plug-In . SVG Version: 6.00 Build 0)  -->
<svg version="1.1" id="Ebene_1" xmlns="http://www.w3.org/2000/svg" xmlns:xlink="http://www.w3.org/1999/xlink" x="0px" y="0px" viewBox="0 0 32 24" style="enable-background:new 0 0 32 24;" xml:space="preserve">
<style type="text/css">
	.st0{fill:#EA161F;}
</style>
<path id="right-arrow-white" class="st0" d="M21,2.2c-0.4-0.4-1-0.4-1.4-0.1c-0.4,0.4-0.4,1-0.1,1.4l0,0l7.4,7.4H2.6  c-0.6,0-1,0.4-1,1l0,0c0,0.6,0.5,1,1,1l0,0h24.3l-7.4,7.4c-0.4,0.4-0.4,1,0,1.5c0.4,0.4,1,0.4,1.4,0l0,0l9.1-9.1  c0.4-0.4,0.4-1,0-1.4l0,0L21,2.2z"/>
</svg>