<?xml version="1.0" encoding="UTF-8"?>
<!-- Generator: Adobe Illustrator 23.0.0, SVG Export Plug-In . SVG Version: 6.00 Build 0)  -->
<svg version="1.1" id="Ebene_1" xmlns="http://www.w3.org/2000/svg" xmlns:xlink="http://www.w3.org/1999/xlink" x="0px" y="0px" viewBox="0 0 20 14" style="enable-background:new 0 0 20 14;" xml:space="preserve">
<g id="login" transform="translate(10 -38.25)">
	<g id="_x36__30_" transform="translate(-10 38.25)">
		<g id="Gruppe_496" transform="translate(0 0)">
			<path id="Pfad_74" d="M10.5,10.1c-0.2,0.2-0.2,0.5,0,0.7c0.2,0.2,0.5,0.2,0.7,0l3.4-3.4c0.2-0.2,0.2-0.5,0-0.8l-3.4-3.4     c-0.2-0.2-0.5-0.2-0.7,0c-0.2,0.2-0.2,0.5,0,0.7l2.6,2.6H2.4C2.1,6.5,1.9,6.7,1.9,7s0.2,0.5,0.5,0.5h10.8L10.5,10.1z M16.1,0H8.3     c-1.1,0-2,0.9-2,2v2h1V2c0-0.6,0.4-1,1-1h7.8c0.6,0,1,0.4,1,1v10c0,0.6-0.4,1-1,1H8.3c-0.6,0-1-0.4-1-1v-2h-1v2c0,1.1,0.9,2,2,2     h7.8c1.1,0,2-0.9,2-2V2C18.1,0.9,17.2,0,16.1,0z"/>
		</g>
	</g>
</g>
</svg>