<?xml version="1.0" encoding="UTF-8"?>
<!-- Generator: Adobe Illustrator 23.0.0, SVG Export Plug-In . SVG Version: 6.00 Build 0)  -->
<svg version="1.1" id="Ebene_1" xmlns="http://www.w3.org/2000/svg" xmlns:xlink="http://www.w3.org/1999/xlink" x="0px" y="0px" viewBox="0 0 20 14" style="enable-background:new 0 0 20 14;" xml:space="preserve">
<g id="logout" transform="translate(-171.027 52.197) rotate(180)">
	<g id="_x36__30_" transform="translate(-188.324 38.2)">
		<g id="Gruppe_497" transform="translate(0)">
			<path id="Pfad_75" d="M2.9,3.9c0.2-0.2,0.2-0.5,0-0.7C2.7,3,2.4,3,2.2,3.1l-3.4,3.5C-1.3,6.7-1.4,6.8-1.4,7c0,0.1,0,0.3,0.1,0.4     l3.4,3.4c0.2,0.2,0.5,0.2,0.7,0c0.2-0.2,0.2-0.5,0-0.7L0.3,7.5h10.8c0.3,0,0.5-0.2,0.5-0.5s-0.2-0.5-0.5-0.5H0.3L2.9,3.9z      M13.9,0H7.6c-1.1,0-2,0.9-2,2v2h1V2c0-0.6,0.4-1,1-1h6.4c0.6,0,1,0.4,1,1v10c0,0.6-0.4,1-1,1H7.6c-0.6,0-1-0.4-1-1v-2h-1v2     c0,1.1,0.9,2,2,2h6.4c1.1,0,2-0.9,2-2V2C15.9,0.9,15.1,0,13.9,0C13.9,0,13.9,0,13.9,0L13.9,0z"/>
		</g>
	</g>
</g>
</svg>