<svg xmlns="http://www.w3.org/2000/svg" viewBox="0 0 144 100.276">
  <defs>
    <style>
      .cls-1 {
        fill: #3d8608;
      }

      .cls-2 {
        fill: none;
      }
    </style>
  </defs>
  <g id="check" transform="translate(-1.925 -2.037)">
    <path id="Pfad_235" data-name="Pfad 235" class="cls-1" d="M133.689,3.909l-81.4,81.4L14.161,47.186a6.615,6.615,0,0,0-5.152-2.061h0a6.615,6.615,0,0,0-5.152,2.061,7.166,7.166,0,0,0,0,9.789l43.277,43.277a6.615,6.615,0,0,0,5.152,2.061h0a6.615,6.615,0,0,0,5.152-2.061L143.993,13.7a6.53,6.53,0,0,0,0-9.274A7.328,7.328,0,0,0,133.689,3.909Z" transform="translate(0 0)"/>
    <g id="Gruppe_1143" data-name="Gruppe 1143" transform="translate(1.925 2.037)">
      <path id="Pfad_236" data-name="Pfad 236" class="cls-2" d="M133.689,3.909l-81.4,81.4L14.161,47.186a6.615,6.615,0,0,0-5.152-2.061h0a6.615,6.615,0,0,0-5.152,2.061,7.166,7.166,0,0,0,0,9.789l43.277,43.277a6.615,6.615,0,0,0,5.152,2.061h0a6.615,6.615,0,0,0,5.152-2.061L143.993,13.7a6.53,6.53,0,0,0,0-9.274A7.328,7.328,0,0,0,133.689,3.909Z" transform="translate(-1.925 -2.037)"/>
    </g>
  </g>
</svg>