<svg xmlns="http://www.w3.org/2000/svg" viewBox="0 0 59 59">
  <defs>
    <style>

      .cls-2 {
        fill: #fff;
      }

    </style>
  </defs>
  <g id="Gruppe_1345" data-name="Gruppe 1345" transform="translate(-848 -1910)">
    <g id="Gruppe_1173" data-name="Gruppe 1173" transform="translate(-383 -881)">
      <path id="Pfad_134" data-name="Pfad 134" class="cls-2" d="M15.81,14.924a1.007,1.007,0,0,0-1.43,0L9.066,20.238V1.012a1.012,1.012,0,1,0-2.024,0V20.238L1.728,14.924A1.011,1.011,0,0,0,.3,16.354l6.993,6.988a.994.994,0,0,0,.768.286.994.994,0,0,0,.768-.286l6.988-6.988A1.012,1.012,0,0,0,15.81,14.924Z" transform="translate(1268.242 2828.63) rotate(180)"/>
    </g>
  </g>
</svg>