<?xml version="1.0" encoding="UTF-8"?>
<!-- Generator: Adobe Illustrator 23.0.4, SVG Export Plug-In . SVG Version: 6.00 Build 0)  -->
<svg version="1.1" id="Ebene_1" xmlns="http://www.w3.org/2000/svg" xmlns:xlink="http://www.w3.org/1999/xlink" x="0px" y="0px" viewBox="0 0 980 980" style="enable-background:new 0 0 980 980;" xml:space="preserve">
<style type="text/css">
	.st0{fill:#333333;}
</style>
<g>
	<path class="st0" d="M490,0C219.4,0,0,219.4,0,490s219.4,490,490,490s490-219.4,490-490S760.6,0,490,0z M330.6,612.9H242   c-5.3,0-9.3-2.4-11.6-6c-2.3-3.8-2.5-8.7,0-13.6l94.1-165.6c0.1-0.2,0.1-0.3,0-0.5l-59.9-103.4c-2.5-4.9-2.8-9.8-0.5-13.5   c2.3-3.6,6.7-5.5,12.1-5.5h88.6c13.6,0,20.2,8.7,24.7,16.6c0,0,60.5,105.3,60.9,105.9c-3.6,6.3-95.6,168.7-95.6,168.7   C350.3,604,343.9,612.9,330.6,612.9z M749.4,203L553.3,548.8c-0.1,0.2-0.1,0.4,0,0.6L678.2,777c2.5,4.9,2.5,9.9,0.2,13.7   c-2.3,3.6-6.4,5.6-11.8,5.6h-88.5c-13.6,0-20.4-9-24.7-16.8c0,0-125.5-229.7-125.8-230.3c6.3-11.1,197.1-348.6,197.1-348.6   c4.7-8.5,10.5-16.8,23.7-16.8h89.5c5.3,0,9.5,2,11.8,5.6C751.9,193.2,751.9,198.1,749.4,203z"/>
</g>
</svg>